<svg xmlns="http://www.w3.org/2000/svg" aria-hidden="true" class="valign-middle absoluteCenter" focusable="false" preserveAspectRatio="xMidYMid meet" style="width:32px;height:32px;overflow:visible;fill:currentColor" viewBox="0 0 24 24"><path d="M11.9997802,0 C18.6169827,0 24,5.38345699 24,12.0002198 C24,18.6169827 18.6169827,24 11.9997802,24 C5.38301731,24 0,18.6169827 0,12.0002198 C0,5.38345699 5.38301731,0 11.9997802,0 Z M15.4043684,4.8 L12.7777895,4.8 C11.2364211,4.8 9.98636842,5.96104896 9.98636842,7.39365487 L9.98636842,9.44903723 L8.59515789,9.44903723 C8.48763158,9.44903723 8.4,9.53002017 8.4,9.6303686 L8.4,11.7623327 C8.4,11.862241 8.48763158,11.9432239 8.59515789,11.9432239 L9.98636842,11.9432239 L9.98636842,19.0186686 C9.98636842,19.1190171 10.074,19.2 10.1815263,19.2 L12.9639474,19.2 C13.0719474,19.2 13.1591053,19.1190171 13.1591053,19.0186686 L13.1591053,11.9432239 L15.1765263,11.9432239 C15.2778947,11.9432239 15.3626842,11.8714836 15.3707368,11.7772969 L15.5649474,9.64533284 C15.5748947,9.53970292 15.4844211,9.44903723 15.3702632,9.44903723 L13.1591053,9.44903723 L13.1591053,7.93632863 C13.1591053,7.58202824 13.4688947,7.29462681 13.8502105,7.29462681 L15.4043684,7.29462681 C15.5123684,7.29462681 15.6,7.21320374 15.6,7.11329543 L15.6,4.98133138 C15.6,4.88142307 15.5123684,4.8 15.4043684,4.8 Z"/><circle class="sb-icon-hover" cx="50%" cy="50%" fill="transparent" r="75%"/></svg>