<svg xmlns="http://www.w3.org/2000/svg" aria-hidden="true" class="valign-middle absoluteCenter" focusable="false" preserveAspectRatio="xMidYMid meet" style="width:32px;height:32px;overflow:visible;fill:currentColor" viewBox="0 0 24 24"><path d="M11.9997802,0 C18.6169827,0 24,5.38345699 24,12.0002198 C24,18.6169827 18.6169827,24 11.9997802,24 C5.38301731,24 0,18.6169827 0,12.0002198 C0,5.38345699 5.38301731,0 11.9997802,0 Z M15,5 L9,5 C6.790861,5 5,6.790861 5,9 L5,9 L5,15 C5,17.209139 6.790861,19 9,19 L9,19 L15,19 C17.209139,19 19,17.209139 19,15 L19,15 L19,9 C19,6.790861 17.209139,5 15,5 L15,5 Z M14.7647059,6.23529412 C16.4215601,6.23529412 17.7647059,7.57843987 17.7647059,9.23529412 L17.7647059,9.23529412 L17.7647059,14.7647059 L17.7596132,14.9409787 C17.6683668,16.5157859 16.3623868,17.7647059 14.7647059,17.7647059 L14.7647059,17.7647059 L9.23529412,17.7647059 L9.05902133,17.7596132 C7.48421408,17.6683668 6.23529412,16.3623868 6.23529412,14.7647059 L6.23529412,14.7647059 L6.23529412,9.23529412 L6.24038681,9.05902133 C6.33163324,7.48421408 7.63761323,6.23529412 9.23529412,6.23529412 L9.23529412,6.23529412 Z M11.7941176,8.70588235 C9.86112102,8.70588235 8.29411765,10.2728857 8.29411765,12.2058824 C8.29411765,14.138879 9.86112102,15.7058824 11.7941176,15.7058824 C13.7271143,15.7058824 15.2941176,14.138879 15.2941176,12.2058824 C15.2941176,10.2728857 13.7271143,8.70588235 11.7941176,8.70588235 Z M11.7941176,9.94117647 C13.0448802,9.94117647 14.0588235,10.9551198 14.0588235,12.2058824 C14.0588235,13.4566449 13.0448802,14.4705882 11.7941176,14.4705882 C10.5433551,14.4705882 9.52941176,13.4566449 9.52941176,12.2058824 C9.52941176,10.9551198 10.5433551,9.94117647 11.7941176,9.94117647 Z M15.7058824,7.47058824 C15.2510596,7.47058824 14.8823529,7.83929491 14.8823529,8.29411765 C14.8823529,8.74894038 15.2510596,9.11764706 15.7058824,9.11764706 C16.1607051,9.11764706 16.5294118,8.74894038 16.5294118,8.29411765 C16.5294118,7.83929491 16.1607051,7.47058824 15.7058824,7.47058824 Z"/><circle class="sb-icon-hover" cx="50%" cy="50%" fill="transparent" r="75%"/></svg>