<svg xmlns="http://www.w3.org/2000/svg" aria-hidden="true" class="valign-middle absoluteCenter" focusable="false" preserveAspectRatio="xMidYMid meet" style="width:32px;height:32px;overflow:visible;fill:currentColor" viewBox="0 0 24 24"><path d="M11.9997802,0 C18.6169827,0 24,5.38345699 24,12.0002198 C24,18.6169827 18.6169827,24 11.9997802,24 C5.38301731,24 0,18.6169827 0,12.0002198 C0,5.38345699 5.38301731,0 11.9997802,0 Z M16.7437635,9.80095875 C16.4076853,7.09999459 13.974973,5.72453915 11.3823151,6.04599103 C9.33308638,6.29999351 7.2896388,8.13734924 7.20446304,10.7614723 C7.15898457,12.1352202 7.45420918,13.2152643 8.40655904,13.7079011 C8.73839766,13.8799397 9.11455851,13.647282 9.1538704,13.2438663 C9.21707776,12.5937053 8.71874171,12.2918906 8.62315986,11.6344724 C8.11827183,8.17406221 12.2275208,5.81162572 14.3781126,8.22870476 C15.8661833,9.90298663 14.8864693,15.0504856 12.4865168,14.5160131 C10.1875419,14.0041661 13.6123015,9.9059749 11.7765903,9.10213176 C10.2854362,8.44855564 9.49303183,11.1017076 10.2002605,12.420386 C9.82795373,14.4553941 9.06985087,16.3845322 9.18046374,18.814845 C9.19780722,19.1905125 9.62831098,19.3377913 9.8410577,19.0449414 C10.5737235,18.0396038 10.8832083,16.5651088 11.1456729,15.0398132 C11.7349659,15.4359717 12.0506173,15.8487791 12.8017828,15.9128133 C15.5732712,16.14974 17.121466,12.8489885 16.7437635,9.80095875 Z"/><circle class="sb-icon-hover" cx="50%" cy="50%" fill="transparent" r="75%"/></svg>