<svg xmlns="http://www.w3.org/2000/svg" aria-hidden="true" class="valign-middle absoluteCenter" focusable="false" preserveAspectRatio="xMidYMid meet" style="width:32px;height:32px;overflow:visible;fill:currentColor" viewBox="0 0 24 24"><path d="M12,0 C18.6274131,0 24,5.37261901 24,12.0000716 C24,18.627381 18.6274131,24 12,24 C5.37258694,24 0,18.627381 0,12.0000716 C0,5.37261901 5.37258694,0 12,0 Z M11.0669976,14 C9.95068692,14.0009568 8.6027256,14.1878544 7.49869423,14.4956294 C7.1391459,14.5957759 6.94143571,14.9349663 7.01538732,15.323911 C7.08630361,15.6969088 7.39839046,15.9206437 7.74883281,15.8300653 C8.54008748,15.6259451 9.33810265,15.4781174 10.1468794,15.4098647 C11.1130794,15.3282166 12.0741744,15.3684028 13.0286469,15.5672606 C14.1176396,15.7941848 15.1397171,16.2280998 16.0883949,16.8908526 C16.3912378,17.1024678 16.747061,16.996421 16.9174532,16.6588253 C17.0846722,16.3276084 16.9922326,15.9219194 16.6909074,15.7184371 C16.4242125,15.5382372 16.1546202,15.3615456 15.8770258,15.205585 C14.3588102,14.3530642 12.7453957,14.0017542 11.0669976,14 Z M10.1375115,11.0003442 L9.77055252,11.0048078 C8.68426674,11.0479717 7.61755495,11.2034929 6.57584646,11.49243 C6.14064634,11.6131584 5.91075895,11.9889467 6.03234638,12.3691822 C6.15507681,12.7528185 6.57698947,12.9458793 7.02147652,12.8358765 C7.38895345,12.7448397 7.75828776,12.6556341 8.1321941,12.5915421 C9.5848138,12.3422374 11.0434343,12.3367438 12.5037693,12.5345134 C14.0365424,12.7419621 15.4914481,13.1568596 16.8266238,13.8930018 C17.2083883,14.103459 17.6680202,13.9939794 17.8937642,13.6477519 C18.1073637,13.320098 17.9912056,12.8938209 17.614156,12.6938277 C17.2519655,12.5018134 16.8857744,12.313069 16.5065817,12.1523159 C14.6039028,11.3459341 12.5917809,11.001407 10.504792,11.0032382 C10.2600455,11.0032382 10.0148704,10.9949978 9.77055252,11.0048078 Z M11.0635356,7.01538228 C10.2184059,6.97905829 9.3745573,7.0079312 8.53227456,7.09284241 C7.5586031,7.1912587 6.59774312,7.36511712 5.66051317,7.67557859 C5.1689799,7.83857086 4.89609567,8.38560397 5.0370218,8.90997339 C5.18164902,9.44769266 5.68015742,9.75008213 6.17923521,9.59003924 C7.37155569,9.20770594 8.59405429,9.0489049 9.83078786,9.00947629 C11.1386962,8.96771922 12.4379213,9.07187905 13.7249043,9.33685791 C15.0971547,9.61953308 16.4163087,10.0659767 17.6311204,10.8388705 C17.7602315,10.9209876 17.918809,10.947532 18.0638633,11 C18.0668526,10.9917728 18.0701267,10.9835455 18.0732584,10.9753183 C18.1337569,10.9681777 18.195252,10.9664702 18.2544694,10.9528099 C18.6473544,10.8626208 18.9228009,10.5436216 18.9889935,10.1064919 C19.0467875,9.72508998 18.8742597,9.30969253 18.5354676,9.11099719 C18.0779559,8.84244802 17.6178819,8.57219131 17.1390177,8.35455782 C15.1965147,7.47176064 13.154794,7.1054161 11.0635356,7.01538228 Z"/><circle class="sb-icon-hover" cx="50%" cy="50%" fill="transparent" r="75%"/></svg>