<svg xmlns="http://www.w3.org/2000/svg" aria-hidden="true" class="valign-middle absoluteCenter" focusable="false" preserveAspectRatio="xMidYMid meet" style="width:32px;height:32px;overflow:visible;fill:currentColor" viewBox="0 0 24 24"><path d="M11.9997802,0 C18.6169827,0 24,5.38345699 24,12.0002198 C24,18.6169827 18.6169827,24 11.9997802,24 C5.38301731,24 0,18.6169827 0,12.0002198 C0,5.38345699 5.38301731,0 11.9997802,0 Z M16.1700158,7 L8.82998416,7 C7.26701245,7 6,8.25308368 6,9.79887301 L6,13.201127 C6,14.7469163 7.26701245,16 8.82998416,16 L16.1700158,16 C17.7329875,16 19,14.7469163 19,13.201127 L19,9.79887301 C19,8.25308368 17.7329875,7 16.1700158,7 Z M11.3262463,9.28078768 L14.5709798,11.3486057 C14.7141036,11.4390048 14.689657,11.6696954 14.5443107,11.7571306 L11.3218015,13.7217059 C11.1822335,13.8056832 11.0555556,13.6925608 11.0555556,13.5162084 L11.0555556,9.4838152 C11.0555556,9.30499291 11.1857894,9.19236451 11.3262463,9.28078768 Z"/><circle class="sb-icon-hover" cx="50%" cy="50%" fill="transparent" r="75%"/></svg>